HIERARCHY
ROOT root
{
	OFFSET 0.000000 0.000000 0.000000
	CHANNELS 6 Xposition Yposition Zposition Zrotation Yrotation Xrotation
	JOINT lhip
	{
		OFFSET 0.058581 -0.082280 -0.017664
		CHANNELS 3 Zrotation Yrotation Xrotation
		JOINT lknee
		{
			OFFSET 0.043451 -0.386469 0.008037
			CHANNELS 3 Zrotation Yrotation Xrotation
			JOINT lankle
			{
				OFFSET -0.014790 -0.426874 -0.037428
				CHANNELS 3 Zrotation Yrotation Xrotation
				JOINT ltoe
				{
					OFFSET 0.041054 -0.060286 0.122042
					CHANNELS 3 Zrotation Yrotation Xrotation
					End Site
					{
						OFFSET 0.000000 0.000000 0.000000
					}
				}
			}
		}
	}
	JOINT rhip
	{
		OFFSET -0.060310 -0.090513 -0.013543
		CHANNELS 3 Zrotation Yrotation Xrotation
		JOINT rknee
		{
			OFFSET -0.043257 -0.383688 -0.004843
			CHANNELS 3 Zrotation Yrotation Xrotation
			JOINT rankle
			{
				OFFSET 0.019056 -0.420046 -0.034562
				CHANNELS 3 Zrotation Yrotation Xrotation
				JOINT rtoe
				{
					OFFSET -0.034840 -0.062106 0.130323
					CHANNELS 3 Zrotation Yrotation Xrotation
					End Site
					{
						OFFSET 0.000000 0.000000 0.000000
					}
				}
			}
		}
	}
	JOINT lowerback
	{
		OFFSET 0.004439 0.124404 -0.038385
		CHANNELS 3 Zrotation Yrotation Xrotation
		JOINT upperback
		{
			OFFSET 0.004488 0.137956 0.026820
			CHANNELS 3 Zrotation Yrotation Xrotation
			JOINT chest
			{
				OFFSET -0.002265 0.056032 0.002855
				CHANNELS 3 Zrotation Yrotation Xrotation
				JOINT lowerneck
				{
					OFFSET -0.013390 0.211636 -0.033468
					CHANNELS 3 Zrotation Yrotation Xrotation
					JOINT upperneck
					{
						OFFSET 0.010113 0.088937 0.050410
						CHANNELS 3 Zrotation Yrotation Xrotation
						End Site
						{
							OFFSET 0.000000 0.000000 0.000000
						}
					}
				}
				JOINT lclavicle
				{
					OFFSET 0.071702 0.114000 -0.018898
					CHANNELS 3 Zrotation Yrotation Xrotation
					JOINT lshoulder
					{
						OFFSET 0.122921 0.045205 -0.019046
						CHANNELS 3 Zrotation Yrotation Xrotation
						JOINT lelbow
						{
							OFFSET 0.255332 -0.015649 -0.022946
							CHANNELS 3 Zrotation Yrotation Xrotation
							JOINT lwrist
							{
								OFFSET 0.265709 0.012698 -0.007375
								CHANNELS 3 Zrotation Yrotation Xrotation
								End Site
								{
									OFFSET 0.000000 0.000000 0.000000
								}
							}
						}
					}
				}
				JOINT rclavicle
				{
					OFFSET -0.082954 0.112472 -0.023707
					CHANNELS 3 Zrotation Yrotation Xrotation
					JOINT rshoulder
					{
						OFFSET -0.113228 0.046853 -0.008472
						CHANNELS 3 Zrotation Yrotation Xrotation
						JOINT relbow
						{
							OFFSET -0.260127 -0.014369 -0.031269
							CHANNELS 3 Zrotation Yrotation Xrotation
							JOINT rwrist
							{
								OFFSET -0.269108 0.006794 -0.006027
								CHANNELS 3 Zrotation Yrotation Xrotation
								End Site
								{
									OFFSET 0.000000 0.000000 0.000000
								}
							}
						}
					}
				}
			}
		}
	}
}
MOTION
Frames: 16
Frame Time: 0.033333
0.165400 2.113449 0.918447 4.960612 0.256654 98.999402 3.515617 -2.925298 1.898092 -8.212847 2.975457 61.441011 -4.618650 11.402579 27.760791 0.000000 -0.000000 0.000000 -9.121503 5.492811 -46.270217 2.407481 -18.609546 52.561177 0.948757 -4.287326 -12.605955 0.000000 -0.000000 0.000000 0.734788 -5.669731 22.945465 2.486284 4.017766 -0.625576 1.493459 -1.215847 -4.038872 -6.094778 0.849543 -3.207992 -2.867500 1.488094 0.457360 -21.621980 -2.556847 1.234317 -58.626023 -16.150011 19.013922 37.314294 -77.335384 -9.910646 8.278720 -9.330568 -13.897107 23.168448 6.305253 4.791304 41.281083 3.970850 11.827227 -6.746696 36.113678 11.226881 -4.336170 6.428887 3.177988 
0.157081 2.032347 0.920836 1.915604 1.587375 99.985402 6.679767 -1.947124 -15.902662 -5.271081 10.311884 83.871972 -2.732619 9.407581 13.125988 0.000000 -0.000000 0.000000 -4.844503 5.483255 -39.883934 4.595475 -15.737221 51.314913 -0.050751 -3.860679 -17.051489 0.000000 -0.000000 0.000000 2.890916 -1.573748 25.683449 1.191469 5.170583 -8.659964 0.751603 -0.388355 -0.626463 -6.000019 -1.612480 -4.098177 -3.918393 0.877886 0.394978 -23.981968 0.042169 2.623750 -54.405240 -8.592706 14.441141 16.857831 -73.482226 9.939190 13.916282 -12.338221 -7.892853 23.136455 7.460497 4.866175 39.281539 8.591376 9.008106 -10.033592 41.526257 8.194180 -8.847342 6.956674 0.611172 
0.152436 1.949122 0.929450 0.145203 1.129645 100.717438 7.720591 -3.552405 -34.171822 -1.565936 14.975487 95.709662 -0.730733 8.370824 1.101055 0.000000 -0.000000 0.000000 -2.201685 1.615217 -31.453302 8.198765 -9.322492 47.332659 1.234135 -3.578623 -19.429386 0.000000 -0.000000 0.000000 1.920079 2.666304 25.142812 1.580124 4.158295 -8.376258 0.257228 1.332010 -0.532871 -5.122516 -3.793568 -6.941873 -3.540469 -0.071958 0.010993 -22.679144 4.750109 2.132020 -53.269263 -1.570822 12.075508 9.619959 -74.268925 14.413986 29.434125 -12.964140 -10.659144 22.284542 7.166475 3.169066 37.894097 13.933872 6.828884 -15.781940 48.798692 -0.803998 -12.753804 7.184573 -1.248442 
0.144069 1.813906 0.948673 -1.982606 -0.052053 100.914657 10.794161 -6.253707 -54.841634 0.673419 21.276307 91.442242 0.207333 8.933977 -9.088187 0.000000 -0.000000 0.000000 -0.535801 -3.445719 -15.071683 8.526328 0.821989 37.136625 4.243054 -0.572205 -16.662276 0.000000 -0.000000 0.000000 -0.472516 9.852712 23.863448 1.864431 1.708397 -10.145441 -0.320200 3.069328 1.747353 -2.622668 -2.491655 -10.630511 -2.073900 -5.582650 2.264850 -18.160356 11.481577 1.065587 -51.556418 7.179942 8.509045 -11.339854 -75.298894 34.832623 19.078273 -10.505680 -15.832774 20.767789 4.707323 -0.418692 39.785727 18.685886 5.766620 -33.993090 59.713759 -17.093507 -11.052369 5.644738 -2.722342 
0.142484 1.765866 0.957233 -1.965638 -0.702278 101.227181 11.556314 -7.677049 -59.483878 0.711572 23.210497 84.985535 0.685210 9.517612 -10.141820 0.000000 -0.000000 0.000000 -1.036800 -4.435725 -9.108473 7.717817 2.990045 31.940184 5.765330 0.093238 -13.141635 0.000000 -0.000000 0.000000 -1.364954 11.912204 22.260720 1.945161 0.557567 -10.187020 -0.443008 3.377888 2.306606 -2.254860 -2.450723 -10.288011 -1.267953 -6.978155 2.432865 -16.556546 12.823806 1.494567 -51.725598 8.706811 7.402523 -12.598024 -74.430368 36.141772 19.042230 -11.437425 -16.270167 20.092208 3.906232 -1.069788 41.081102 19.559449 5.984613 -40.559508 61.744932 -22.063351 -12.428466 5.690293 -3.246143 
0.142104 1.665069 0.974802 -1.059948 -2.522006 101.703671 10.080799 -10.879868 -63.283786 -0.520593 24.069339 64.901421 1.514356 11.109822 -10.263958 0.000000 -0.000000 0.000000 -3.237237 -6.352352 2.687253 5.929705 5.005638 20.536965 11.316600 0.072404 1.165656 0.000000 -0.000000 0.000000 -3.385414 15.347559 18.561838 1.716446 -2.254133 -8.788778 -0.370029 3.540992 1.804733 -2.167080 -4.089881 -6.733403 1.176759 -7.920874 1.123675 -14.738155 13.852388 2.850388 -51.457444 10.919869 5.861427 -12.029681 -72.500525 34.590420 22.056949 -11.009520 -15.098575 18.880075 2.356109 -1.542383 43.502663 19.284684 7.060665 -50.423606 64.552288 -29.895983 -14.562126 6.069425 -3.636072 
0.138111 1.560756 0.993523 -0.235401 -3.479973 101.621946 7.957773 -14.959700 -59.260682 -3.835303 20.400763 37.673811 0.846370 12.290847 -10.745787 0.000000 -0.000000 0.000000 -4.621788 -7.914538 10.754232 4.415009 3.153386 13.933513 16.044601 -3.954837 18.379470 0.000000 -0.000000 0.000000 -5.710607 17.121390 16.096068 1.330587 -3.769661 -7.839416 0.161414 3.449331 0.425951 -2.210301 -5.581572 -1.960313 3.952501 -7.839688 -1.161620 -15.093294 13.904762 4.537834 -49.397165 11.018923 5.690227 -9.993846 -72.417667 29.223578 22.734045 -10.371126 -15.346799 19.683183 1.147307 -1.105117 44.413626 16.918274 8.648598 -52.207534 66.746938 -32.908328 -18.546862 6.520694 -3.016310 
0.133682 1.453543 1.008243 0.264608 -2.805571 101.664000 5.929666 -16.767497 -53.395899 -4.261622 15.039697 18.457249 2.041442 13.119666 -9.355209 0.000000 -0.000000 0.000000 -4.839574 -9.002108 14.067475 4.300474 0.256511 15.372257 17.439577 -7.987753 30.122151 0.000000 -0.000000 0.000000 -7.101641 17.609156 11.236208 1.320997 -4.335277 -3.303555 0.527699 3.038774 -2.485614 -2.096072 -7.083842 1.276886 5.900632 -6.583556 -2.410817 -17.777691 12.897926 4.915831 -45.804444 10.324644 6.174967 -8.671493 -73.276687 23.494730 21.466815 -10.315874 -12.630384 23.010285 0.549025 0.127437 42.121216 13.339389 9.362075 -45.371060 68.675083 -30.491667 -17.557726 7.266397 -0.570739 
0.128324 1.349618 1.012460 0.848636 -1.087156 101.527693 4.827423 -15.926708 -49.680775 -4.742980 10.675517 15.850368 1.816747 11.871040 -9.667869 0.000000 -0.000000 0.000000 -2.292477 -8.268917 11.556794 3.616411 -1.558682 28.661722 16.943360 -10.151108 25.456621 0.000000 -0.000000 0.000000 -7.501754 15.779808 7.727766 2.113772 -3.638094 -0.033890 0.488165 2.409527 -4.991490 -0.470220 -6.680957 2.167030 5.725366 -6.117294 -1.888714 -21.779462 11.572979 4.002451 -41.899721 8.588857 7.343041 -5.748257 -73.950236 19.457289 21.361100 -9.347267 -10.130925 26.034950 -0.451103 -0.033834 39.936241 9.575539 11.762486 -28.254345 67.791664 -14.610765 -16.629102 8.142729 -0.366101 
0.120654 1.248334 1.007394 -0.239058 0.447623 99.655881 5.932843 -17.429895 -42.486344 -5.517014 9.081487 16.482975 0.981699 11.673611 -8.259856 0.000000 -0.000000 0.000000 -0.688752 -4.466912 8.057952 4.317397 -4.460121 44.508797 15.419321 -11.412343 18.612837 0.000000 -0.000000 0.000000 -8.474401 13.684661 7.305727 3.285941 -2.186377 1.830020 0.532110 1.918994 -6.552459 2.197062 -5.719409 0.782914 4.698707 -4.802720 0.079561 -24.910912 10.168856 2.764787 -39.954412 5.071758 9.775020 5.836232 -74.744445 7.162608 17.495356 -9.897536 -9.195692 28.600083 -0.501601 -0.475812 38.792110 5.439771 14.389283 -17.254598 62.995927 -5.068267 -11.365829 7.827126 1.210231 
0.118940 1.154963 0.987819 1.786047 0.978801 98.340893 4.073309 -16.334776 -39.980036 -8.488509 8.238679 25.331626 10.208267 10.651362 -4.173809 0.000000 -0.000000 0.000000 -2.053376 -4.017661 1.942639 4.311132 -9.853453 59.528105 11.225253 -10.087183 12.952967 0.000000 -0.000000 0.000000 -8.713573 8.380698 11.196078 3.846563 -1.818702 -2.958644 0.664982 1.764100 -4.215560 3.547028 -5.785954 -1.758487 5.234022 -1.242510 2.581072 -27.580530 8.230821 0.713371 -39.002176 0.375949 11.708166 15.405304 -75.989004 -2.617265 17.753645 -9.699309 -7.296819 28.733107 -1.499717 -2.179393 40.248524 1.794051 17.061793 -11.503867 55.904102 1.537203 -6.901191 8.002422 3.763234 
0.118043 1.066844 0.972887 3.719339 0.753992 96.281324 0.682519 -14.902110 -35.476881 -9.913827 5.210588 34.379433 10.336548 12.846278 -10.253761 0.000000 -0.000000 0.000000 -4.809714 -2.813708 -8.268103 1.937682 -14.296585 74.980399 10.023117 -9.673125 5.420670 0.000000 -0.000000 0.000000 -9.003308 3.832827 17.763657 3.717479 -1.597056 -8.894388 1.116065 0.639711 -0.613676 5.010520 -4.684860 -6.847430 4.962315 2.392013 5.247538 -27.931557 4.748213 -1.469324 -41.650771 -5.741058 13.157757 30.895436 -75.269644 -14.701778 15.711624 -10.186438 -6.972028 27.248232 -1.620459 -4.628190 43.917875 -2.748457 18.277016 -11.730444 48.586799 2.067678 -0.085575 6.956360 5.864434 
0.117810 0.977199 0.969909 4.627950 -0.107081 93.957148 -3.476094 -11.019766 -22.954324 -12.475750 -1.711823 30.856179 9.198694 14.667302 -13.909902 0.000000 -0.000000 0.000000 -7.733055 -3.952753 -20.818442 0.206132 -14.056579 84.969024 12.223478 -9.144975 -3.005849 0.000000 -0.000000 0.000000 -8.979474 0.958764 23.729737 2.513252 -1.908273 -10.918405 1.814551 -1.230854 -1.334078 4.644836 -1.791514 -6.243188 6.079973 2.841291 3.624849 -24.913731 -0.155593 1.183513 -46.110927 -12.730973 10.317318 43.922425 -76.226955 -23.602370 16.458586 -10.641686 -8.383621 23.961754 -1.978064 0.747162 49.479824 -3.434501 12.324049 -8.599711 42.201214 6.135432 -0.691398 6.254573 4.335871 
0.116541 0.887425 0.977187 4.832263 1.255090 92.951131 -3.754431 -4.486576 -10.844594 -13.108470 -11.495890 25.874909 6.915513 15.167750 -14.394895 0.000000 -0.000000 0.000000 -6.664597 -3.805007 -34.304544 -0.443549 -14.134304 86.568819 10.900346 -8.373528 -4.262620 0.000000 -0.000000 0.000000 -7.066371 -2.219874 25.286509 1.810203 -1.138061 -10.800809 2.769221 -3.160305 -1.377217 2.240301 -0.200461 -4.803590 6.388213 5.844315 2.192861 -22.406581 -5.547543 1.846282 -49.155025 -18.119351 10.454096 70.304585 -76.772707 -48.882555 17.875772 -9.110839 -11.365660 20.650720 -0.636836 1.635421 51.867532 -8.332876 9.672337 -5.830908 38.882365 8.689089 2.856981 5.371669 3.299772 
0.113001 0.791763 0.990208 4.573944 3.869837 92.464191 -0.768800 -0.507225 1.264812 -10.584238 -18.111070 19.249440 2.171889 14.658496 -12.239861 0.000000 -0.000000 0.000000 -5.022401 -0.731862 -44.079119 -2.289589 -17.335441 80.253442 10.048765 -8.558017 -5.124142 0.000000 -0.000000 0.000000 -4.446381 -5.822820 24.392605 2.181888 0.212937 -9.903728 3.387378 -4.145652 -1.311756 -0.270203 1.637153 -3.929885 4.927728 8.140849 2.440538 -20.458718 -8.181323 0.385253 -51.534778 -23.151957 13.523145 88.549407 -75.002206 -65.299238 17.932873 -9.125955 -12.684967 18.715945 -0.800677 1.221674 50.979722 -13.447420 9.836100 -3.639943 36.591659 12.751920 5.360373 5.867459 2.729363 
0.107158 0.691203 1.004290 4.232551 5.974012 92.718558 3.374494 0.798356 13.149655 -7.024636 -18.181426 8.973190 -4.434539 12.772130 -3.909878 0.000000 -0.000000 0.000000 -5.395131 3.909702 -49.182418 -6.513901 -24.346288 68.706729 9.308428 -10.673862 -7.373251 0.000000 -0.000000 0.000000 -2.620324 -8.981859 21.324057 2.817721 1.003323 -7.567365 4.073154 -4.844793 -2.197775 -2.058731 4.376926 -1.726486 3.578078 9.718021 2.146706 -18.537790 -8.997626 -0.505152 -53.252348 -26.581147 16.011786 104.192361 -73.617381 -79.530288 16.647098 -10.050765 -12.008096 17.565293 -1.783158 2.834715 49.451603 -16.312710 10.063464 -2.168039 34.450682 16.091420 3.843713 5.443913 2.894005 
